<svg width="1072" height="233" viewBox="0 0 1072 233" fill="none" xmlns="http://www.w3.org/2000/svg">
<path d="M238.62 145V40.7H282.44C288.693 40.7 294.06 41.82 298.54 44.06C303.113 46.3 306.613 49.4733 309.04 53.58C311.56 57.5933 312.82 62.4 312.82 68C312.82 73.1333 311.467 77.8 308.76 82C306.147 86.1067 302.273 89.3267 297.14 91.66L297 86.48C301.48 88.16 305.167 90.4 308.06 93.2C311.047 95.9067 313.287 99.08 314.78 102.72C316.273 106.267 317.02 110.047 317.02 114.06C317.02 123.673 313.94 131.233 307.78 136.74C301.62 142.247 293.22 145 282.58 145H238.62ZM252.34 132.4H283.14C289.207 132.4 294.06 130.767 297.7 127.5C301.34 124.233 303.16 119.8 303.16 114.2C303.16 108.6 301.34 104.167 297.7 100.9C294.06 97.54 289.207 95.86 283.14 95.86H252.34V132.4ZM252.34 83.54H282.16C287.2 83.54 291.26 82.0933 294.34 79.2C297.42 76.2133 298.96 72.4333 298.96 67.86C298.96 63.1 297.42 59.46 294.34 56.94C291.26 54.42 287.2 53.16 282.16 53.16H252.34V83.54ZM361.734 146.68C354.454 146.68 347.967 144.953 342.274 141.5C336.58 138.047 332.1 133.333 328.834 127.36C325.567 121.293 323.934 114.527 323.934 107.06C323.934 99.5 325.52 92.78 328.694 86.9C331.96 81.02 336.347 76.4 341.854 73.04C347.454 69.5867 353.707 67.86 360.614 67.86C366.214 67.86 371.16 68.8867 375.454 70.94C379.84 72.9 383.527 75.6067 386.514 79.06C389.594 82.42 391.927 86.2933 393.514 90.68C395.194 94.9733 396.034 99.4533 396.034 104.12C396.034 105.147 395.94 106.313 395.754 107.62C395.66 108.833 395.52 110 395.334 111.12H333.454V99.92H387.774L381.614 104.96C382.454 100.107 381.987 95.7667 380.214 91.94C378.44 88.1133 375.827 85.08 372.374 82.84C368.92 80.6 365 79.48 360.614 79.48C356.227 79.48 352.214 80.6 348.574 82.84C344.934 85.08 342.087 88.3 340.034 92.5C338.074 96.6067 337.28 101.507 337.654 107.2C337.28 112.707 338.12 117.56 340.174 121.76C342.32 125.867 345.307 129.087 349.134 131.42C353.054 133.66 357.3 134.78 361.874 134.78C366.914 134.78 371.16 133.613 374.614 131.28C378.067 128.947 380.867 125.96 383.014 122.32L393.934 127.92C392.44 131.373 390.107 134.547 386.934 137.44C383.854 140.24 380.167 142.48 375.874 144.16C371.674 145.84 366.96 146.68 361.734 146.68ZM433.03 146.68C425.47 146.68 418.89 144.813 413.29 141.08C407.69 137.347 403.723 132.307 401.39 125.96L411.75 120.92C413.896 125.4 416.836 128.947 420.57 131.56C424.303 134.173 428.456 135.48 433.03 135.48C437.136 135.48 440.543 134.5 443.25 132.54C445.956 130.58 447.31 128.013 447.31 124.84C447.31 122.6 446.656 120.827 445.35 119.52C444.136 118.12 442.643 117.047 440.87 116.3C439.096 115.46 437.463 114.853 435.97 114.48L424.63 111.26C417.816 109.3 412.823 106.5 409.65 102.86C406.57 99.22 405.03 94.9733 405.03 90.12C405.03 85.64 406.15 81.7667 408.39 78.5C410.723 75.14 413.85 72.5267 417.77 70.66C421.783 68.7933 426.263 67.86 431.21 67.86C437.836 67.86 443.763 69.54 448.99 72.9C454.31 76.26 458.09 80.9733 460.33 87.04L449.69 91.94C448.01 88.02 445.49 84.94 442.13 82.7C438.77 80.3667 434.99 79.2 430.79 79.2C426.963 79.2 423.93 80.18 421.69 82.14C419.45 84.0067 418.33 86.3867 418.33 89.28C418.33 91.4267 418.89 93.2 420.01 94.6C421.13 95.9067 422.483 96.9333 424.07 97.68C425.656 98.3333 427.196 98.8933 428.69 99.36L441.01 103C447.17 104.773 451.93 107.527 455.29 111.26C458.743 114.993 460.47 119.473 460.47 124.7C460.47 128.9 459.303 132.68 456.97 136.04C454.636 139.4 451.416 142.013 447.31 143.88C443.203 145.747 438.443 146.68 433.03 146.68ZM501.174 145.84C493.8 145.84 488.107 143.74 484.094 139.54C480.174 135.34 478.214 129.413 478.214 121.76V82H464.494V69.54H467.294C470.654 69.54 473.314 68.5133 475.274 66.46C477.234 64.4067 478.214 61.7 478.214 58.34V52.18H491.234V69.54H508.174V82H491.234V121.34C491.234 123.86 491.607 126.053 492.354 127.92C493.194 129.787 494.547 131.28 496.414 132.4C498.28 133.427 500.754 133.94 503.834 133.94C504.487 133.94 505.28 133.893 506.214 133.8C507.24 133.707 508.174 133.613 509.014 133.52V145C507.8 145.28 506.447 145.467 504.954 145.56C503.46 145.747 502.2 145.84 501.174 145.84ZM585.921 146.68C578.547 146.68 571.734 145.373 565.481 142.76C559.227 140.053 553.814 136.273 549.241 131.42C544.667 126.567 541.074 120.873 538.461 114.34C535.941 107.807 534.681 100.667 534.681 92.92C534.681 85.08 535.941 77.8933 538.461 71.36C540.981 64.8267 544.527 59.1333 549.101 54.28C553.674 49.4267 559.087 45.6933 565.341 43.08C571.594 40.3733 578.407 39.02 585.781 39.02C592.967 39.02 599.407 40.28 605.101 42.8C610.887 45.32 615.741 48.5867 619.661 52.6C623.674 56.6133 626.521 60.9067 628.201 65.48L615.881 71.5C613.454 65.4333 609.674 60.6267 604.541 57.08C599.407 53.5333 593.154 51.76 585.781 51.76C578.501 51.76 572.014 53.4867 566.321 56.94C560.721 60.3933 556.334 65.2 553.161 71.36C549.987 77.52 548.401 84.7067 548.401 92.92C548.401 101.04 549.987 108.18 553.161 114.34C556.427 120.5 560.861 125.307 566.461 128.76C572.154 132.213 578.641 133.94 585.921 133.94C592.267 133.94 598.007 132.587 603.141 129.88C608.274 127.173 612.334 123.44 615.321 118.68C618.307 113.92 619.801 108.413 619.801 102.16V95.72L626.101 101.6H585.781V89.7H633.661V98.94C633.661 106.22 632.401 112.8 629.881 118.68C627.361 124.56 623.907 129.6 619.521 133.8C615.134 137.907 610.047 141.08 604.261 143.32C598.474 145.56 592.361 146.68 585.921 146.68ZM643.654 145V39.02H656.674V145H643.654ZM705.717 146.68C698.437 146.68 691.857 145 685.977 141.64C680.097 138.187 675.43 133.473 671.977 127.5C668.524 121.527 666.797 114.76 666.797 107.2C666.797 99.64 668.477 92.92 671.837 87.04C675.29 81.16 679.957 76.4933 685.837 73.04C691.717 69.5867 698.344 67.86 705.717 67.86C712.997 67.86 719.577 69.5867 725.457 73.04C731.337 76.4 735.957 81.02 739.317 86.9C742.77 92.78 744.497 99.5467 744.497 107.2C744.497 114.853 742.724 121.667 739.177 127.64C735.63 133.52 730.917 138.187 725.037 141.64C719.25 145 712.81 146.68 705.717 146.68ZM705.717 134.08C710.384 134.08 714.584 132.913 718.317 130.58C722.144 128.247 725.13 125.027 727.277 120.92C729.517 116.813 730.637 112.24 730.637 107.2C730.637 102.067 729.517 97.54 727.277 93.62C725.13 89.6067 722.144 86.4333 718.317 84.1C714.584 81.6733 710.384 80.46 705.717 80.46C700.957 80.46 696.664 81.6733 692.837 84.1C689.104 86.4333 686.117 89.6067 683.877 93.62C681.637 97.54 680.517 102.067 680.517 107.2C680.517 112.24 681.637 116.813 683.877 120.92C686.117 125.027 689.104 128.247 692.837 130.58C696.664 132.913 700.957 134.08 705.717 134.08ZM793.538 146.68C787.472 146.68 781.918 145.327 776.878 142.62C771.932 139.913 768.105 136.087 765.398 131.14L767.218 128.9V145H754.478V39.02H767.498V85.78L765.538 82.56C768.338 78.08 772.165 74.5333 777.018 71.92C781.872 69.2133 787.425 67.86 793.678 67.86C800.772 67.86 807.118 69.5867 812.718 73.04C818.412 76.4933 822.892 81.2067 826.158 87.18C829.425 93.06 831.058 99.78 831.058 107.34C831.058 114.713 829.425 121.387 826.158 127.36C822.892 133.333 818.412 138.047 812.718 141.5C807.118 144.953 800.725 146.68 793.538 146.68ZM792.558 134.08C797.318 134.08 801.565 132.913 805.298 130.58C809.032 128.247 811.925 125.073 813.978 121.06C816.125 116.953 817.198 112.38 817.198 107.34C817.198 102.113 816.125 97.54 813.978 93.62C811.925 89.6067 809.032 86.4333 805.298 84.1C801.565 81.6733 797.318 80.46 792.558 80.46C787.798 80.46 783.505 81.6267 779.678 83.96C775.945 86.2933 772.958 89.5133 770.718 93.62C768.572 97.6333 767.498 102.207 767.498 107.34C767.498 112.38 768.572 116.953 770.718 121.06C772.958 125.073 775.945 128.247 779.678 130.58C783.505 132.913 787.798 134.08 792.558 134.08ZM863.251 146.68C858.304 146.68 853.917 145.793 850.091 144.02C846.357 142.153 843.417 139.633 841.271 136.46C839.124 133.193 838.051 129.46 838.051 125.26C838.051 121.247 838.891 117.653 840.571 114.48C842.344 111.213 845.051 108.46 848.691 106.22C852.424 103.98 857.091 102.393 862.691 101.46L890.691 96.84V107.76L865.631 111.96C860.777 112.8 857.231 114.34 854.991 116.58C852.844 118.82 851.771 121.573 851.771 124.84C851.771 127.92 852.984 130.487 855.411 132.54C857.931 134.593 861.057 135.62 864.791 135.62C869.551 135.62 873.657 134.64 877.111 132.68C880.657 130.627 883.411 127.873 885.371 124.42C887.424 120.967 888.451 117.14 888.451 112.94V93.76C888.451 89.6533 886.911 86.34 883.831 83.82C880.844 81.2067 876.877 79.9 871.931 79.9C867.637 79.9 863.811 81.02 860.451 83.26C857.184 85.4067 854.757 88.3 853.171 91.94L841.831 86.06C843.231 82.6067 845.471 79.5267 848.551 76.82C851.631 74.02 855.224 71.8267 859.331 70.24C863.437 68.6533 867.731 67.86 872.211 67.86C877.997 67.86 883.084 68.98 887.471 71.22C891.857 73.3667 895.264 76.4 897.691 80.32C900.211 84.1467 901.471 88.6267 901.471 93.76V145H888.731V130.72L891.111 131.56C889.524 134.547 887.377 137.16 884.671 139.4C881.964 141.64 878.791 143.413 875.151 144.72C871.511 146.027 867.544 146.68 863.251 146.68ZM914.658 145V39.02H927.678V145H914.658ZM949.54 145L986.92 40.7H1003.16L1040.54 145H1025.84L1017.3 120.5H972.78L964.24 145H949.54ZM977.12 107.9H1012.96L993.08 50.64H997L977.12 107.9ZM1046.68 145V40.7H1060.4V145H1046.68Z" fill="#F9F9F9"/>
<path d="M284.78 174.6V216H280.58V182.94L265.82 216H262.76L248 183.06V216H243.8V174.6H248.24L264.26 210.48L280.28 174.6H284.78ZM307.988 199.56C307.988 196.2 308.648 193.26 309.968 190.74C311.328 188.18 313.188 186.22 315.548 184.86C317.948 183.46 320.648 182.76 323.648 182.76C326.768 182.76 329.448 183.48 331.688 184.92C333.968 186.36 335.608 188.2 336.608 190.44V183.24H340.808V216H336.608V208.74C335.568 210.98 333.908 212.84 331.628 214.32C329.388 215.76 326.708 216.48 323.588 216.48C320.628 216.48 317.948 215.78 315.548 214.38C313.188 212.98 311.328 211 309.968 208.44C308.648 205.88 307.988 202.92 307.988 199.56ZM336.608 199.62C336.608 196.98 336.068 194.66 334.988 192.66C333.908 190.66 332.428 189.12 330.548 188.04C328.708 186.96 326.668 186.42 324.428 186.42C322.108 186.42 320.028 186.94 318.188 187.98C316.348 189.02 314.888 190.54 313.808 192.54C312.768 194.5 312.248 196.84 312.248 199.56C312.248 202.24 312.768 204.6 313.808 206.64C314.888 208.64 316.348 210.18 318.188 211.26C320.028 212.3 322.108 212.82 324.428 212.82C326.668 212.82 328.708 212.28 330.548 211.2C332.428 210.12 333.908 208.58 334.988 206.58C336.068 204.58 336.608 202.26 336.608 199.62ZM383.696 216L370.196 201.3V216H365.996V171.6H370.196V197.88L383.396 183.24H389.276L373.736 199.56L389.396 216H383.696ZM412.524 177.06C411.684 177.06 410.964 176.76 410.364 176.16C409.764 175.56 409.464 174.82 409.464 173.94C409.464 173.06 409.764 172.34 410.364 171.78C410.964 171.18 411.684 170.88 412.524 170.88C413.364 170.88 414.084 171.18 414.684 171.78C415.284 172.34 415.584 173.06 415.584 173.94C415.584 174.82 415.284 175.56 414.684 176.16C414.084 176.76 413.364 177.06 412.524 177.06ZM414.624 183.24V216H410.424V183.24H414.624ZM455.095 182.64C459.015 182.64 462.215 183.86 464.695 186.3C467.175 188.7 468.415 192.2 468.415 196.8V216H464.275V197.28C464.275 193.72 463.375 191 461.575 189.12C459.815 187.24 457.395 186.3 454.315 186.3C451.155 186.3 448.635 187.3 446.755 189.3C444.875 191.3 443.935 194.24 443.935 198.12V216H439.735V183.24H443.935V188.82C444.975 186.82 446.475 185.3 448.435 184.26C450.395 183.18 452.615 182.64 455.095 182.64ZM507.044 182.76C510.124 182.76 512.804 183.48 515.084 184.92C517.364 186.36 519.004 188.18 520.004 190.38V183.24H524.204V216.84C524.204 219.84 523.544 222.5 522.224 224.82C520.944 227.14 519.144 228.92 516.824 230.16C514.504 231.44 511.864 232.08 508.904 232.08C504.704 232.08 501.204 231.08 498.404 229.08C495.644 227.08 493.924 224.36 493.244 220.92H497.384C498.104 223.2 499.464 225.02 501.464 226.38C503.504 227.74 505.984 228.42 508.904 228.42C511.024 228.42 512.924 227.96 514.604 227.04C516.284 226.16 517.604 224.84 518.564 223.08C519.524 221.32 520.004 219.24 520.004 216.84V208.74C518.964 210.98 517.304 212.84 515.024 214.32C512.784 215.76 510.124 216.48 507.044 216.48C504.044 216.48 501.344 215.78 498.944 214.38C496.584 212.98 494.724 211 493.364 208.44C492.044 205.88 491.384 202.92 491.384 199.56C491.384 196.2 492.044 193.26 493.364 190.74C494.724 188.18 496.584 186.22 498.944 184.86C501.344 183.46 504.044 182.76 507.044 182.76ZM520.004 199.62C520.004 196.98 519.464 194.66 518.384 192.66C517.304 190.66 515.824 189.12 513.944 188.04C512.104 186.96 510.064 186.42 507.824 186.42C505.504 186.42 503.424 186.94 501.584 187.98C499.744 189.02 498.284 190.54 497.204 192.54C496.164 194.5 495.644 196.84 495.644 199.56C495.644 202.24 496.164 204.6 497.204 206.64C498.284 208.64 499.744 210.18 501.584 211.26C503.424 212.3 505.504 212.82 507.824 212.82C510.064 212.82 512.104 212.28 513.944 211.2C515.824 210.12 517.304 208.58 518.384 206.58C519.464 204.58 520.004 202.26 520.004 199.62ZM605.757 206.04H586.677L583.017 216H578.577L593.877 174.6H598.617L613.857 216H609.417L605.757 206.04ZM604.497 202.56L596.217 179.88L587.937 202.56H604.497ZM640.398 174.06V216H636.198V174.06H640.398ZM724.393 186.12C724.393 189.72 723.213 192.62 720.853 194.82C718.493 197.02 714.953 198.12 710.233 198.12H701.773V216H697.573V174.06H710.233C714.913 174.06 718.433 175.16 720.793 177.36C723.193 179.56 724.393 182.48 724.393 186.12ZM710.233 194.52C716.793 194.52 720.073 191.72 720.073 186.12C720.073 183.32 719.293 181.2 717.733 179.76C716.173 178.32 713.673 177.6 710.233 177.6H701.773V194.52H710.233ZM776.681 197.94C776.681 199.38 776.641 200.48 776.561 201.24H749.381C749.501 203.72 750.101 205.84 751.181 207.6C752.261 209.36 753.681 210.7 755.441 211.62C757.201 212.5 759.121 212.94 761.201 212.94C763.921 212.94 766.201 212.28 768.041 210.96C769.921 209.64 771.161 207.86 771.761 205.62H776.201C775.401 208.82 773.681 211.44 771.041 213.48C768.441 215.48 765.161 216.48 761.201 216.48C758.121 216.48 755.361 215.8 752.921 214.44C750.481 213.04 748.561 211.08 747.161 208.56C745.801 206 745.121 203.02 745.121 199.62C745.121 196.22 745.801 193.24 747.161 190.68C748.521 188.12 750.421 186.16 752.861 184.8C755.301 183.44 758.081 182.76 761.201 182.76C764.321 182.76 767.041 183.44 769.361 184.8C771.721 186.16 773.521 188 774.761 190.32C776.041 192.6 776.681 195.14 776.681 197.94ZM772.421 197.82C772.461 195.38 771.961 193.3 770.921 191.58C769.921 189.86 768.541 188.56 766.781 187.68C765.021 186.8 763.101 186.36 761.021 186.36C757.901 186.36 755.241 187.36 753.041 189.36C750.841 191.36 749.621 194.18 749.381 197.82H772.421ZM804.165 189.06C805.085 187.02 806.485 185.44 808.365 184.32C810.285 183.2 812.625 182.64 815.385 182.64V187.02H814.245C811.205 187.02 808.765 187.84 806.925 189.48C805.085 191.12 804.165 193.86 804.165 197.7V216H799.965V183.24H804.165V189.06ZM848.583 216.48C844.823 216.48 841.743 215.62 839.343 213.9C836.983 212.14 835.663 209.76 835.383 206.76H839.703C839.903 208.6 840.763 210.1 842.283 211.26C843.843 212.38 845.923 212.94 848.523 212.94C850.803 212.94 852.583 212.4 853.863 211.32C855.183 210.24 855.843 208.9 855.843 207.3C855.843 206.18 855.483 205.26 854.763 204.54C854.043 203.82 853.123 203.26 852.003 202.86C850.923 202.42 849.443 201.96 847.563 201.48C845.123 200.84 843.143 200.2 841.623 199.56C840.103 198.92 838.803 197.98 837.723 196.74C836.683 195.46 836.163 193.76 836.163 191.64C836.163 190.04 836.643 188.56 837.603 187.2C838.563 185.84 839.923 184.76 841.683 183.96C843.443 183.16 845.443 182.76 847.683 182.76C851.203 182.76 854.043 183.66 856.203 185.46C858.363 187.22 859.523 189.66 859.683 192.78H855.483C855.363 190.86 854.603 189.32 853.203 188.16C851.843 186.96 849.963 186.36 847.563 186.36C845.443 186.36 843.723 186.86 842.403 187.86C841.083 188.86 840.423 190.1 840.423 191.58C840.423 192.86 840.803 193.92 841.563 194.76C842.363 195.56 843.343 196.2 844.503 196.68C845.663 197.12 847.223 197.62 849.183 198.18C851.543 198.82 853.423 199.44 854.823 200.04C856.223 200.64 857.423 201.52 858.423 202.68C859.423 203.84 859.943 205.38 859.983 207.3C859.983 209.06 859.503 210.64 858.543 212.04C857.583 213.4 856.243 214.48 854.523 215.28C852.803 216.08 850.823 216.48 848.583 216.48ZM897.829 216.48C894.749 216.48 891.969 215.8 889.489 214.44C887.049 213.04 885.109 211.08 883.669 208.56C882.269 206 881.569 203.02 881.569 199.62C881.569 196.22 882.289 193.26 883.729 190.74C885.169 188.18 887.129 186.22 889.609 184.86C892.089 183.46 894.869 182.76 897.949 182.76C901.029 182.76 903.809 183.46 906.289 184.86C908.809 186.22 910.769 188.18 912.169 190.74C913.609 193.26 914.329 196.22 914.329 199.62C914.329 202.98 913.609 205.94 912.169 208.5C910.729 211.06 908.749 213.04 906.229 214.44C903.709 215.8 900.909 216.48 897.829 216.48ZM897.829 212.82C899.989 212.82 901.989 212.34 903.829 211.38C905.669 210.38 907.149 208.9 908.269 206.94C909.429 204.94 910.009 202.5 910.009 199.62C910.009 196.74 909.449 194.32 908.329 192.36C907.209 190.36 905.729 188.88 903.889 187.92C902.049 186.92 900.049 186.42 897.889 186.42C895.729 186.42 893.729 186.92 891.889 187.92C890.049 188.88 888.569 190.36 887.449 192.36C886.369 194.32 885.829 196.74 885.829 199.62C885.829 202.5 886.369 204.94 887.449 206.94C888.569 208.9 890.029 210.38 891.829 211.38C893.669 212.34 895.669 212.82 897.829 212.82ZM952.945 182.64C956.865 182.64 960.065 183.86 962.545 186.3C965.025 188.7 966.265 192.2 966.265 196.8V216H962.125V197.28C962.125 193.72 961.225 191 959.425 189.12C957.665 187.24 955.245 186.3 952.165 186.3C949.005 186.3 946.485 187.3 944.605 189.3C942.725 191.3 941.785 194.24 941.785 198.12V216H937.585V183.24H941.785V188.82C942.825 186.82 944.325 185.3 946.285 184.26C948.245 183.18 950.465 182.64 952.945 182.64ZM989.234 199.56C989.234 196.2 989.894 193.26 991.214 190.74C992.574 188.18 994.434 186.22 996.794 184.86C999.194 183.46 1001.89 182.76 1004.89 182.76C1008.01 182.76 1010.69 183.48 1012.93 184.92C1015.21 186.36 1016.85 188.2 1017.85 190.44V183.24H1022.05V216H1017.85V208.74C1016.81 210.98 1015.15 212.84 1012.87 214.32C1010.63 215.76 1007.95 216.48 1004.83 216.48C1001.87 216.48 999.194 215.78 996.794 214.38C994.434 212.98 992.574 211 991.214 208.44C989.894 205.88 989.234 202.92 989.234 199.56ZM1017.85 199.62C1017.85 196.98 1017.31 194.66 1016.23 192.66C1015.15 190.66 1013.67 189.12 1011.79 188.04C1009.95 186.96 1007.91 186.42 1005.67 186.42C1003.35 186.42 1001.27 186.94 999.434 187.98C997.594 189.02 996.134 190.54 995.054 192.54C994.014 194.5 993.494 196.84 993.494 199.56C993.494 202.24 994.014 204.6 995.054 206.64C996.134 208.64 997.594 210.18 999.434 211.26C1001.27 212.3 1003.35 212.82 1005.67 212.82C1007.91 212.82 1009.95 212.28 1011.79 211.2C1013.67 210.12 1015.15 208.58 1016.23 206.58C1017.31 204.58 1017.85 202.26 1017.85 199.62ZM1051.44 171.6V216H1047.24V171.6H1051.44Z" fill="#F9F9F9"/>
<path d="M43.5513 73.8058L115.303 190.642C119.161 196.924 128.258 197.015 132.24 190.811L154.958 155.42C157.22 151.896 157.047 147.335 154.523 143.992L152.893 141.833C151.003 139.33 148.048 137.859 144.912 137.859H113.017C105.322 137.859 100.51 129.532 104.353 122.866L120.751 94.4134C122.537 91.3158 125.84 89.4069 129.415 89.4069H176.041C179.518 89.4069 182.745 91.2127 184.564 94.1758L199.866 119.107C201.731 122.145 201.837 125.947 200.144 129.085L155.112 212.565C153.367 215.801 149.987 217.818 146.311 217.818H63.347C59.8754 217.818 56.6522 216.017 54.8319 213.061L2.99285 128.876C1.13805 125.864 1.01262 122.096 2.66298 118.967L26.1849 74.3735C29.7994 67.521 39.497 67.204 43.5513 73.8058Z" fill="#F9F9F9"/>
<path d="M124.557 76.755L137.955 55.296C142.114 48.6353 137.325 40 129.473 40H53.3248C49.8606 40 46.6432 41.7929 44.8207 44.7388L44.0535 45.9789C41.9446 49.3876 42.0749 53.7261 44.3846 57.0021L58.6391 77.221C60.5125 79.8783 63.5608 81.459 66.8121 81.459H116.075C119.525 81.459 122.731 79.6811 124.557 76.755Z" fill="#F9F9F9"/>
</svg>
